PathFileType	4	(X/Y/Z)	Run_300 01
DataRate	CameraRate	NumFrames	NumMarkers	Units	OrigDataRate	OrigDataStartFrame	OrigNumFrames
120	120	4	42	mm	120	322	128
Frame#	Time	LASI			LPSI			RPSI			RTH1			RTH2			RTH3			LTH1			LTH2			LTH3			RTB1			RTB2			RTB3			LTB1			LTB2			RCAL			RTOE			RMT5			LCAL			LMT5			LACR			RACR			CLAV			C7			RUA1			RUA2			RUA3			RLEL			RMEL			LUA1			LUA2			LUA3			LLEL			LMEL			RFAsuperior			RFAradius			RFAulna			LFAsuperior			LFAradius			LFAulna			LTB3			LTOE			RASI		
		X1	Y1	Z1	X2	Y2	Z2	X3	Y3	Z3	X4	Y4	Z4	X5	Y5	Z5	X6	Y6	Z6	X7	Y7	Z7	X8	Y8	Z8	X9	Y9	Z9	X10	Y10	Z10	X11	Y11	Z11	X12	Y12	Z12	X13	Y13	Z13	X14	Y14	Z14	X15	Y15	Z15	X16	Y16	Z16	X17	Y17	Z17	X18	Y18	Z18	X19	Y19	Z19	X20	Y20	Z20	X21	Y21	Z21	X22	Y22	Z22	X23	Y23	Z23	X24	Y24	Z24	X25	Y25	Z25	X26	Y26	Z26	X27	Y27	Z27	X28	Y28	Z28	X29	Y29	Z29	X30	Y30	Z30	X31	Y31	Z31	X32	Y32	Z32	X33	Y33	Z33	X34	Y34	Z34	X35	Y35	Z35	X36	Y36	Z36	X37	Y37	Z37	X38	Y38	Z38	X39	Y39	Z39	X40	Y40	Z40	X41	Y41	Z41	X42	Y42	Z42	

322	  2.683333	770.262612	978.834395	-495.221500	601.537043	1006.687119	-401.616105	605.881387	1002.744463	-316.310142	779.891435	797.033549	-206.515426	886.638366	711.299390	-233.087004	861.014206	579.011106	-218.962068	718.469014	840.382209	-543.405432	772.475569	725.301625	-533.769263	703.880114	586.460255	-524.207142	793.262391	426.922799	-275.410132	723.872744	453.148833	-220.297140	615.812125	411.753913	-280.825067	707.630794	344.423944	-446.319705	620.139147	264.305110	-487.171339	468.449706	496.946872	-276.808940	480.625255	277.634908	-286.854238	457.961677	305.772059	-196.745197	436.561052	113.005162	-404.111016	616.216629	 58.900833	-495.212610	787.677171	1401.464409	-574.371761	774.053379	1429.344010	-192.636969	878.491741	1380.666280	-349.906657	748.913814	1476.656619	-392.154442	719.459482	1334.068330	-129.701754	715.827162	1262.707732	-128.445884	615.521222	1279.838507	-100.268664	618.910015	1189.845011	-59.403560	566.319352	1183.435170	-130.267012	760.363096	1328.012388	-629.645115	701.973520	1256.519179	-617.606476	749.297802	1244.198049	-676.226061	741.303557	1145.843049	-729.561133	709.521671	1087.338138	-669.862865	688.353210	1145.061434	-84.770595	810.140456	1080.575063	-182.417251	764.795055	1030.342101	-167.272963	811.007768	1159.541667	-708.114616	937.934330	1169.700958	-586.327779	958.442909	1119.533513	-627.295634	601.406453	188.242465	-411.975623	650.774179	 69.801686	-410.098420	773.555371	973.028154	-248.454827	
323	  2.691667	771.271771	980.826447	-498.525483	602.735036	1011.158955	-402.728046	606.740103	1008.365433	-317.329605	784.613551	805.357861	-206.479809	893.556371	722.820185	-233.830424	873.032733	590.337519	-219.875230	715.122580	842.490749	-543.136725	764.940007	725.834981	-532.142604	689.174480	589.543967	-522.037416	812.455339	432.040536	-277.276701	741.438991	453.650994	-221.510862	636.883227	404.872638	-281.404614	686.061189	346.580631	-445.005408	597.550824	268.097900	-486.620436	482.354740	479.044493	-276.440486	513.196920	261.402755	-289.023559	487.748410	287.007987	-198.185505	412.867372	117.798250	-405.296490	590.926091	 59.003484	-495.046101	792.706275	1406.512850	-572.825369	770.564379	1435.296231	-192.290002	878.702115	1386.202006	-346.646877	749.882514	1481.502235	-391.475941	713.459941	1342.151935	-129.452881	709.173486	1270.915395	-126.981534	607.772306	1288.845334	-102.443405	609.368867	1199.378760	-60.832315	559.137069	1192.425750	-133.374119	766.459902	1332.314878	-627.984428	706.823040	1261.565972	-616.387561	755.724805	1247.930880	-673.314819	747.605385	1148.967997	-725.413043	714.393303	1091.778402	-664.964791	679.641938	1155.339333	-83.940867	804.253668	1090.181150	-176.354343	758.482990	1039.856191	-163.435468	816.926598	1163.432979	-703.174864	941.886066	1176.545351	-579.730448	962.986234	1125.398575	-618.837640	578.428263	191.368676	-412.433004	626.329140	 69.968817	-410.500636	773.499472	978.850033	-249.333660	
324	  2.700000	772.738396	983.139247	-502.209445	604.411888	1015.755589	-403.840460	607.978928	1014.412687	-318.240076	789.427751	814.066947	-206.784463	899.900599	734.256861	-234.700026	883.914304	601.417878	-220.855710	713.021752	844.819082	-542.581418	757.950087	726.706947	-530.209193	674.744652	593.733504	-519.472076	831.042722	437.392092	-279.277665	758.587151	453.586910	-222.795224	657.770270	397.246355	-282.082219	664.832348	349.969144	-443.474241	575.635583	273.208151	-486.451265	497.139158	459.280846	-276.974104	546.963952	245.029812	-290.915187	519.585286	268.349079	-199.283814	390.386696	124.173361	-407.252349	565.728410	 59.146205	-494.767975	797.808374	1412.388391	-570.959558	767.196845	1441.631084	-191.999568	878.831284	1392.325424	-343.195134	750.727220	1486.738740	-390.541535	707.932719	1350.789614	-129.213868	703.248206	1279.615346	-125.534888	600.833057	1298.336531	-104.542799	600.967937	1209.588411	-62.211170	552.633995	1201.757778	-136.134426	772.374318	1337.688796	-626.195691	711.568622	1267.764783	-615.488548	762.221769	1252.811447	-670.685686	753.335362	1153.366623	-721.731879	717.866281	1097.607752	-660.678472	672.116876	1166.654165	-83.159030	798.787960	1100.278168	-170.804666	752.905856	1049.898018	-159.451802	822.230262	1168.171728	-698.426572	944.783975	1183.700607	-573.204063	966.190830	1131.480519	-610.105799	556.195231	195.587560	-413.155168	602.335705	 70.318264	-410.734718	773.877039	985.230300	-249.914045	
325	  2.708333	774.490361	985.819809	-505.285703	606.514959	1020.480600	-405.099555	609.555274	1020.660072	-319.136775	794.223376	823.035368	-207.287101	905.729414	745.504360	-235.681608	893.543859	612.032942	-221.838584	711.852561	847.340665	-541.720871	751.576252	728.101844	-528.110738	661.250090	598.940660	-516.892130	848.865243	442.683127	-281.140870	775.383881	452.815506	-224.134103	678.551626	388.867290	-282.957286	644.293615	354.765628	-441.972979	554.715857	279.757623	-486.777738	513.164706	437.805452	-278.349945	581.955931	228.859961	-292.392065	553.164921	250.012552	-200.167449	369.307026	132.137560	-409.766074	540.744691	 59.382147	-494.474676	802.799842	1418.849042	-568.879474	764.106552	1448.091695	-191.658328	878.862318	1398.895535	-339.656241	751.485015	1492.235758	-389.449979	702.990488	1359.624927	-128.967354	698.032533	1288.485875	-124.126358	594.793427	1307.976283	-106.540806	593.466320	1220.033382	-63.395931	546.732510	1211.347593	-138.620587	777.986469	1343.932132	-624.345412	716.155230	1274.852246	-614.938111	768.529614	1258.618712	-668.373406	758.500277	1158.850337	-718.639523	720.310032	1104.458979	-657.178588	665.410941	1178.072256	-82.123425	793.736040	1110.433458	-165.712502	748.021820	1059.977779	-155.341332	826.935675	1173.572004	-693.991032	946.713668	1190.955127	-566.789163	968.197759	1137.564026	-601.256575	534.944227	200.969257	-414.049793	578.797859	 70.679674	-410.888776	774.599940	991.832523	-250.461102	
